<?xml version="1.0" encoding="UTF-8" standalone="no"?>
<!-- Created with Inkscape (http://www.inkscape.org/) -->

<svg
   xmlns:dc="http://purl.org/dc/elements/1.1/"
   xmlns:cc="http://creativecommons.org/ns#"
   xmlns:rdf="http://www.w3.org/1999/02/22-rdf-syntax-ns#"
   xmlns:svg="http://www.w3.org/2000/svg"
   xmlns="http://www.w3.org/2000/svg"
   xmlns:sodipodi="http://sodipodi.sourceforge.net/DTD/sodipodi-0.dtd"
   xmlns:inkscape="http://www.inkscape.org/namespaces/inkscape"
   width="50"
   height="50"
   viewBox="0 0 13.229166 13.229167"
   version="1.1"
   id="svg8"
   inkscape:version="0.92.3 (unknown)"
   sodipodi:docname="gear.svg">
  <defs
     id="defs2" />
  <sodipodi:namedview
     id="base"
     pagecolor="#ffffff"
     bordercolor="#666666"
     borderopacity="1.0"
     inkscape:pageopacity="0.0"
     inkscape:pageshadow="2"
     inkscape:zoom="7.9195959"
     inkscape:cx="27.470917"
     inkscape:cy="31.034338"
     inkscape:document-units="mm"
     inkscape:current-layer="layer1"
     showgrid="false"
     units="px"
     inkscape:window-width="937"
     inkscape:window-height="1027"
     inkscape:window-x="981"
     inkscape:window-y="24"
     inkscape:window-maximized="0" />
  <metadata
     id="metadata5">
    <rdf:RDF>
      <cc:Work
         rdf:about="">
        <dc:format>image/svg+xml</dc:format>
        <dc:type
           rdf:resource="http://purl.org/dc/dcmitype/StillImage" />
        <dc:title></dc:title>
      </cc:Work>
    </rdf:RDF>
  </metadata>
  <g
     inkscape:label="Layer 1"
     inkscape:groupmode="layer"
     id="layer1"
     transform="translate(0,-283.77082)">
    <path
       style="fill:#333c44;fill-opacity:1;stroke-width:0.01549475"
       d="m 11.240789,294.50822 0.0325,-0.0423 -0.48933,-0.73566 -0.48929,-0.73491 0.0718,-0.10337 c 0.10578,-0.1517 0.26795,-0.4447 0.36574,-0.66087 0.0687,-0.15145 0.0913,-0.18898 0.11395,-0.18663 0.0157,0.002 0.32512,0.006 0.6874,0.01 0.36229,0.004 0.74274,0.008 0.84546,0.009 0.10268,10e-4 0.19258,-0.001 0.19812,-0.006 0.0134,-0.01 0.0837,-0.29062 0.12766,-0.51044 l 4e-4,3.7e-4 c 0.0534,-0.26696 0.11605,-1.02781 0.10776,-1.30468 -0.004,-0.13294 -0.0128,-0.24689 -0.0172,-0.25282 -0.005,-0.006 -0.39475,-0.0885 -0.86471,-0.18274 -0.46997,-0.0942 -0.85606,-0.17333 -0.85878,-0.1765 -0.003,-0.003 -0.0273,-0.1081 -0.0553,-0.23396 -0.0526,-0.23722 -0.14187,-0.52692 -0.21594,-0.70005 l -0.0432,-0.10026 0.62513,-0.6126 c 0.34344,-0.33731 0.62658,-0.62149 0.62746,-0.63316 0.003,-0.0253 -0.17389,-0.31156 -0.32839,-0.53255 -0.22451,-0.32108 -0.69543,-0.8509 -0.92451,-1.03973 -0.0514,-0.0426 -0.0606,-0.0454 -0.0865,-0.0268 -0.0322,0.0229 -1.3922901,0.92159 -1.4203301,0.93953 -0.0104,0.007 -0.0886,-0.0344 -0.19176,-0.10052 -0.19214,-0.12309 -0.48263,-0.27746 -0.65572,-0.34922 -0.0616,-0.0256 -0.11438,-0.0491 -0.11704,-0.0523 -0.003,-0.003 -10e-4,-0.39885 0.004,-0.87984 0.006,-0.57583 0.004,-0.87907 -0.008,-0.88778 -0.009,-0.007 -0.0491,-0.021 -0.0877,-0.0302 -0.66125,-0.15791 -1.16013,-0.21461 -1.75413,-0.19928 -0.20176,0.005 -0.23811,0.0175 -0.24479,0.0811 -0.004,0.0345 -0.27643,1.39786 -0.31587,1.57903 l -0.0182,0.0836 -0.12147,0.0242 c -0.22254,0.0433 -0.4235,0.0998 -0.66082,0.18715 -0.12917,0.0476 -0.24231,0.0844 -0.25117,0.0833 -0.0122,-0.002 -1.03917,-1.04049 -1.20697,-1.22018 -0.0323,-0.0345 -0.0497,-0.0274 -0.28701,0.12183 -0.46289,0.29106 -0.89678,0.65137 -1.27131,1.05532 -0.0703,0.0764 -0.098,0.11719 -0.0902,0.13098 0.0177,0.0284 0.91729,1.38672 0.94191,1.42251 0.0184,0.0266 0.009,0.0461 -0.0938,0.20829 -0.13068,0.20536 -0.23889,0.40825 -0.33431,0.62704 -0.0367,0.084 -0.0749,0.15119 -0.0838,0.15011 -0.0246,-0.003 -1.744331,-0.0233 -1.748701,-0.0197 -0.01751,0.01 -0.119715,0.48614 -0.164051,0.76257 -0.05814,0.36306 -0.08223,0.72199 -0.07204,1.07612 0.0077,0.26859 -0.0054,0.24145 0.131386,0.26804 0.409219,0.0796 1.586006,0.31805 1.599486,0.32463 0.009,0.004 0.0311,0.0816 0.0496,0.17222 0.0444,0.21839 0.1205,0.47744 0.2031,0.69178 l 0.0672,0.17462 -0.61416,0.60153 c -0.337793,0.33108 -0.620339,0.61067 -0.628641,0.62107 -0.02384,0.03 0.195899,0.38364 0.457011,0.73569 0.2037,0.27465 0.70162,0.81056 0.82157,0.88467 0.0276,0.0171 0.11162,-0.0346 0.76156,-0.46672 l 0.7305,-0.48533 0.2232,0.13928 c 0.22287,0.13932 0.41164,0.23983 0.60878,0.32319 0.0574,0.0244 0.10933,0.0492 0.11374,0.0551 0.005,0.006 0.005,0.40346 -8.2e-4,0.88276 -0.005,0.47931 -0.009,0.87433 -0.006,0.87764 0.002,0.003 0.0901,0.0279 0.19542,0.0548 0.53545,0.1367 1.13296,0.19669 1.775,0.17762 0.0442,-10e-4 0.0895,-0.006 0.0991,-0.012 0.0125,-0.006 0.076,-0.28896 0.1806,-0.80877 0.0886,-0.43983 0.16826,-0.82743 0.17602,-0.86142 l 0.0148,-0.0618 0.12265,-0.0224 c 0.18623,-0.0339 0.50146,-0.12442 0.71675,-0.20629 l 0.19294,-0.0743 0.0648,0.0653 c 0.10696,0.10748 1.11859,1.13667 1.1449,1.16468 0.0219,0.0237 0.0305,0.0226 0.0898,-0.008 0.3243301,-0.16877 1.0008101,-0.69007 1.3202001,-1.0172 0.0987,-0.10183 0.19475,-0.20364 0.21244,-0.22707 z m -2.2566801,-1.93195 a 3.1768287,3.1768287 0 0 1 -4.48938,0.16395 3.1768287,3.1768287 0 0 1 -0.16434,-4.48974 3.1768287,3.1768287 0 0 1 4.49014,-0.16398 3.1768287,3.1768287 0 0 1 0.16358,4.48977 z"
       id="path837"
       inkscape:connector-curvature="0" />
    <circle
       r="1.9095693"
       cy="290.38541"
       cx="6.6145835"
       id="circle850"
       style="opacity:1;fill:#3c4f4e;fill-opacity:1;stroke:none;stroke-width:0.79228717;stroke-linecap:round;stroke-linejoin:miter;stroke-miterlimit:4;stroke-dasharray:none;stroke-dashoffset:0;stroke-opacity:1;paint-order:normal" />
  </g>
</svg>
