<?xml version="1.0" encoding="UTF-8" standalone="no"?>
<!-- Created with Inkscape (http://www.inkscape.org/) -->

<svg
   xmlns:dc="http://purl.org/dc/elements/1.1/"
   xmlns:cc="http://creativecommons.org/ns#"
   xmlns:rdf="http://www.w3.org/1999/02/22-rdf-syntax-ns#"
   xmlns:svg="http://www.w3.org/2000/svg"
   xmlns="http://www.w3.org/2000/svg"
   xmlns:sodipodi="http://sodipodi.sourceforge.net/DTD/sodipodi-0.dtd"
   xmlns:inkscape="http://www.inkscape.org/namespaces/inkscape"
   width="180"
   height="30"
   viewBox="0 0 47.624999 7.9375002"
   version="1.1"
   id="svg1037"
   inkscape:version="0.92.3 (unknown)"
   sodipodi:docname="logo.svg">
  <defs
     id="defs1031" />
  <sodipodi:namedview
     id="base"
     pagecolor="#ffffff"
     bordercolor="#666666"
     borderopacity="1.0"
     inkscape:pageopacity="0.0"
     inkscape:pageshadow="2"
     inkscape:zoom="3.959798"
     inkscape:cx="138.99155"
     inkscape:cy="0.086405393"
     inkscape:document-units="mm"
     inkscape:current-layer="layer1"
     showgrid="false"
     units="px"
     inkscape:window-width="1877"
     inkscape:window-height="1056"
     inkscape:window-x="43"
     inkscape:window-y="24"
     inkscape:window-maximized="1" />
  <metadata
     id="metadata1034">
    <rdf:RDF>
      <cc:Work
         rdf:about="">
        <dc:format>image/svg+xml</dc:format>
        <dc:type
           rdf:resource="http://purl.org/dc/dcmitype/StillImage" />
        <dc:title></dc:title>
      </cc:Work>
    </rdf:RDF>
  </metadata>
  <g
     inkscape:label="Layer 1"
     inkscape:groupmode="layer"
     id="layer1"
     transform="translate(0,-289.06248)">
    <g
       id="g1616"
       transform="translate(-0.26092866,-0.29590481)">
      <path
         style="font-style:normal;font-weight:normal;font-size:6.27322435px;line-height:1.25;font-family:sans-serif;letter-spacing:-0.06900547px;word-spacing:0px;fill:#e9e6d0;fill-opacity:1;stroke:none;stroke-width:0.59274554"
         d="M 33.429688 4.1621094 C 32.481295 4.1621094 31.64507 4.3282187 30.917969 4.6601562 C 30.190867 4.9920938 29.621908 5.4579449 29.210938 6.0585938 C 28.815774 6.6592426 28.617188 7.3542038 28.617188 8.1445312 L 28.617188 10.398438 L 25.771484 10.398438 L 25.771484 12.365234 L 28.617188 12.365234 L 28.617188 22.015625 L 31.273438 22.015625 L 31.273438 12.365234 L 35.162109 12.365234 L 35.46875 10.398438 L 31.273438 10.398438 L 31.273438 8.1699219 C 31.273437 7.5060468 31.470071 7.0153497 31.865234 6.6992188 C 32.260398 6.3830878 32.869466 6.2246094 33.691406 6.2246094 C 34.671412 6.2246094 35.56496 6.3983497 36.371094 6.7460938 L 37.175781 4.8964844 C 36.03771 4.4064813 34.789051 4.1621094 33.429688 4.1621094 z M 70.341797 4.1621094 L 67.6875 4.4707031 L 67.6875 22.015625 L 70.035156 22.015625 L 70.175781 20.783203 C 70.966109 21.810629 72.058242 22.324219 73.449219 22.324219 C 75.029874 22.324219 76.253687 21.715151 77.123047 20.498047 C 78.008214 19.280943 78.451172 17.692434 78.451172 15.732422 C 78.451172 13.661764 78.071214 12.050362 77.3125 10.896484 C 76.553786 9.7426063 75.377712 9.1640625 73.78125 9.1640625 C 73.101568 9.1640625 72.460024 9.3225409 71.859375 9.6386719 C 71.274533 9.9548029 70.768574 10.405392 70.341797 10.990234 L 70.341797 4.1621094 z M 122.58594 4.4707031 L 122.58594 6.4140625 L 126.35547 6.4140625 L 126.35547 18.363281 C 126.35547 19.596192 126.70295 20.569955 127.39844 21.28125 C 128.10973 21.976738 129.08917 22.324219 130.33789 22.324219 C 131.61822 22.324219 132.69314 22.087478 133.5625 21.613281 L 132.90039 19.763672 C 132.2049 20.04819 131.54047 20.189453 130.9082 20.189453 C 129.64368 20.189453 129.01172 19.660601 129.01172 18.601562 L 129.01172 4.4707031 L 122.58594 4.4707031 z M 161.97266 7.9082031 C 161.07168 8.3507865 160.21824 8.6753742 159.41211 8.8808594 C 158.62178 9.0863445 157.54686 9.179869 156.1875 9.1640625 C 155.17588 9.1640625 154.2747 9.3550178 153.48438 9.734375 C 152.69405 10.097926 152.07735 10.619146 151.63477 11.298828 C 151.19218 11.962703 150.9707 12.728296 150.9707 13.597656 C 150.9707 14.419597 151.13681 15.116511 151.46875 15.685547 C 151.81649 16.238776 152.36256 16.712258 153.10547 17.107422 C 152.66289 17.39194 152.32304 17.731789 152.08594 18.126953 C 151.84884 18.522117 151.73047 18.932598 151.73047 19.359375 C 151.73047 20.054863 152.01495 20.631454 152.58398 21.089844 C 153.16883 21.548234 154.02227 21.779297 155.14453 21.779297 L 157.30273 21.779297 C 158.04564 21.779297 158.62986 21.912929 159.05664 22.181641 C 159.49922 22.466159 159.7207 22.861378 159.7207 23.367188 C 159.7207 23.967836 159.44385 24.418426 158.89062 24.71875 C 158.3374 25.034881 157.42859 25.193359 156.16406 25.193359 C 155.2947 25.193359 154.63026 25.120775 154.17188 24.978516 C 153.71349 24.852063 153.39085 24.647799 153.20117 24.363281 C 153.0273 24.09457 152.93945 23.722243 152.93945 23.248047 L 150.56836 23.248047 C 150.56836 24.133214 150.73447 24.853021 151.06641 25.40625 C 151.41415 25.975286 151.99074 26.401029 152.79688 26.685547 C 153.61882 26.985871 154.73384 27.136719 156.14062 27.136719 C 158.16386 27.136719 159.71226 26.789238 160.78711 26.09375 C 161.86195 25.414068 162.40039 24.449889 162.40039 23.201172 C 162.40039 22.537297 162.2018 21.943491 161.80664 21.421875 C 161.42728 20.884452 160.8908 20.46634 160.19531 20.166016 C 159.49982 19.865691 158.70939 19.714844 157.82422 19.714844 L 155.64258 19.714844 C 154.61515 19.714844 154.10156 19.39984 154.10156 18.767578 C 154.10156 18.562093 154.1493 18.371138 154.24414 18.197266 C 154.33898 18.007587 154.47261 17.851062 154.64648 17.724609 C 155.07326 17.866868 155.64222 17.9375 156.35352 17.9375 C 157.36513 17.9375 158.24342 17.756129 158.98633 17.392578 C 159.72924 17.029027 160.2982 16.530699 160.69336 15.898438 C 161.10433 15.266176 161.30859 14.538737 161.30859 13.716797 C 161.30859 12.973889 161.11959 12.341929 160.74023 11.820312 C 160.36088 11.298696 159.79192 10.863369 159.0332 10.515625 C 159.83934 10.515625 160.52667 10.492732 161.0957 10.445312 C 161.68055 10.382086 162.20177 10.271347 162.66016 10.113281 L 161.97266 7.9082031 z M 44.802734 9.1640625 C 43.016594 9.1640625 41.617088 9.7654991 40.605469 10.966797 C 39.609656 12.168095 39.111328 13.764234 39.111328 15.755859 C 39.111328 17.810711 39.602025 19.424065 40.582031 20.59375 C 41.577844 21.747628 42.975397 22.324219 44.777344 22.324219 C 46.563484 22.324219 47.955359 21.730413 48.951172 20.544922 C 49.946984 19.359431 50.445313 17.75566 50.445312 15.732422 C 50.445312 13.709184 49.954615 12.113044 48.974609 10.943359 C 47.994603 9.7578682 46.604681 9.1640625 44.802734 9.1640625 z M 58.757812 9.1640625 C 56.971672 9.1640625 55.572166 9.7654991 54.560547 10.966797 C 53.564734 12.168095 53.068359 13.764234 53.068359 15.755859 C 53.068359 17.810711 53.557103 19.424065 54.537109 20.59375 C 55.532922 21.747628 56.932428 22.324219 58.734375 22.324219 C 60.520515 22.324219 61.910437 21.730413 62.90625 20.544922 C 63.902063 19.359431 64.400391 17.75566 64.400391 15.732422 C 64.400391 13.709184 63.911647 12.113044 62.931641 10.943359 C 61.951635 9.7578682 60.559759 9.1640625 58.757812 9.1640625 z M 86.21875 9.1640625 C 84.796161 9.1640625 83.333653 9.4485423 81.832031 10.017578 L 82.496094 11.890625 C 83.096743 11.68514 83.690548 11.528615 84.275391 11.417969 C 84.860233 11.307323 85.373823 11.251953 85.816406 11.251953 C 86.71738 11.251953 87.40471 11.433324 87.878906 11.796875 C 88.353103 12.160426 88.589844 12.737016 88.589844 13.527344 L 88.589844 14.333984 L 86.8125 14.333984 C 84.915714 14.333984 83.445576 14.689096 82.402344 15.400391 C 81.374918 16.111685 80.861328 17.123603 80.861328 18.435547 C 80.861328 19.605232 81.231702 20.544565 81.974609 21.255859 C 82.717517 21.967154 83.721804 22.324219 84.986328 22.324219 C 85.808269 22.324219 86.5586 22.181002 87.238281 21.896484 C 87.933769 21.59616 88.51036 21.162786 88.96875 20.59375 C 89.37972 21.589563 90.240791 22.166153 91.552734 22.324219 L 92.169922 20.521484 C 91.822178 20.410839 91.577806 20.244729 91.435547 20.023438 C 91.293288 19.786339 91.222656 19.431228 91.222656 18.957031 L 91.222656 13.361328 C 91.222656 12.017771 90.802591 10.982961 89.964844 10.255859 C 89.127097 9.5287581 87.878438 9.1640625 86.21875 9.1640625 z M 114.58203 9.1640625 C 112.79589 9.1640625 111.39638 9.7654991 110.38477 10.966797 C 109.38895 12.168095 108.89062 13.764234 108.89062 15.755859 C 108.89062 17.810711 109.38132 19.424065 110.36133 20.59375 C 111.35714 21.747628 112.75469 22.324219 114.55664 22.324219 C 116.34278 22.324219 117.73466 21.730413 118.73047 20.544922 C 119.72628 19.359431 120.22461 17.75566 120.22461 15.732422 C 120.22461 13.709184 119.73391 12.113044 118.75391 10.943359 C 117.7739 9.7578682 116.38398 9.1640625 114.58203 9.1640625 z M 142.49219 9.1640625 C 140.70605 9.1640625 139.30849 9.7654991 138.29688 10.966797 C 137.30106 12.168095 136.80273 13.764234 136.80273 15.755859 C 136.80273 17.810711 137.29148 19.424065 138.27148 20.59375 C 139.2673 21.747628 140.6668 22.324219 142.46875 22.324219 C 144.25489 22.324219 145.64677 21.730413 146.64258 20.544922 C 147.63839 19.359431 148.13477 17.75566 148.13477 15.732422 C 148.13477 13.709184 147.64602 12.113044 146.66602 10.943359 C 145.68601 9.7578682 144.29413 9.1640625 142.49219 9.1640625 z M 104.4668 9.1894531 C 103.42356 9.1894531 102.54528 9.4567179 101.83398 9.9941406 C 101.1385 10.515757 100.54664 11.313827 100.05664 12.388672 L 99.582031 9.4960938 L 95.716797 9.4960938 L 95.716797 11.392578 L 97.566406 11.392578 L 97.566406 20.119141 L 95.716797 20.119141 L 95.716797 22.015625 L 102.73633 22.015625 L 102.73633 20.119141 L 100.22266 20.119141 L 100.22266 15.470703 C 100.58621 14.237792 101.09217 13.283197 101.74023 12.603516 C 102.3883 11.923834 103.14626 11.5744 104.01562 11.558594 L 104.01562 14.121094 L 105.91211 14.121094 L 106.36328 9.4960938 C 105.74683 9.2906086 105.11487 9.1894531 104.4668 9.1894531 z M 164.42969 9.4960938 L 168.65039 22.015625 L 169.55078 22.015625 C 169.31368 22.663694 169.04447 23.184914 168.74414 23.580078 C 168.44382 23.975242 168.04097 24.29983 167.53516 24.552734 C 167.02935 24.821446 166.36491 25.018079 165.54297 25.144531 L 165.875 27.136719 C 167.55049 26.99446 168.86411 26.488501 169.8125 25.619141 C 170.7767 24.765587 171.51177 23.579929 172.01758 22.0625 L 176.33203 9.4960938 L 173.60547 9.4960938 L 170.4043 20.166016 L 167.25195 9.4960938 L 164.42969 9.4960938 z M 156.21094 11.013672 C 157.83901 11.013672 158.6543 11.85948 158.6543 13.550781 C 158.6543 14.404335 158.44808 15.061141 158.03711 15.519531 C 157.62614 15.977921 157.0247 16.207031 156.23438 16.207031 C 155.39663 16.207031 154.75704 15.977921 154.31445 15.519531 C 153.88768 15.045335 153.67383 14.40379 153.67383 13.597656 C 153.67383 12.807329 153.88768 12.182999 154.31445 11.724609 C 154.74123 11.250413 155.37319 11.013672 156.21094 11.013672 z M 73.044922 11.203125 C 73.898476 11.203125 74.54002 11.567821 74.966797 12.294922 C 75.40938 13.022023 75.630859 14.175204 75.630859 15.755859 C 75.630859 17.289095 75.384534 18.434645 74.894531 19.193359 C 74.420335 19.936267 73.725374 20.308594 72.808594 20.308594 C 71.796975 20.308594 70.974059 19.825528 70.341797 18.861328 L 70.341797 13.005859 C 70.673734 12.468437 71.068954 12.033109 71.527344 11.701172 C 72.00154 11.369234 72.507499 11.203125 73.044922 11.203125 z M 44.802734 11.226562 C 45.751127 11.226562 46.46135 11.598889 46.935547 12.341797 C 47.409743 13.068898 47.646484 14.199187 47.646484 15.732422 C 47.646484 17.281464 47.409743 18.427014 46.935547 19.169922 C 46.46135 19.91283 45.741543 20.285156 44.777344 20.285156 C 43.813144 20.285156 43.09529 19.920461 42.621094 19.193359 C 42.146897 18.450452 41.910156 17.304901 41.910156 15.755859 C 41.910156 14.222624 42.146897 13.084705 42.621094 12.341797 C 43.111097 11.598889 43.838535 11.226562 44.802734 11.226562 z M 58.757812 11.226562 C 59.706205 11.226562 60.418382 11.598889 60.892578 12.341797 C 61.366775 13.068898 61.603516 14.199187 61.603516 15.732422 C 61.603516 17.281464 61.366775 18.427014 60.892578 19.169922 C 60.418382 19.91283 59.698575 20.285156 58.734375 20.285156 C 57.770175 20.285156 57.050368 19.920461 56.576172 19.193359 C 56.101975 18.450452 55.865234 17.304901 55.865234 15.755859 C 55.865234 14.222624 56.101975 13.084705 56.576172 12.341797 C 57.066175 11.598889 57.793613 11.226562 58.757812 11.226562 z M 114.58203 11.226562 C 115.53042 11.226562 116.24065 11.598889 116.71484 12.341797 C 117.18904 13.068898 117.42578 14.199187 117.42578 15.732422 C 117.42578 17.281464 117.18904 18.427014 116.71484 19.169922 C 116.24065 19.91283 115.52084 20.285156 114.55664 20.285156 C 113.59244 20.285156 112.87459 19.920461 112.40039 19.193359 C 111.92619 18.450452 111.68945 17.304901 111.68945 15.755859 C 111.68945 14.222624 111.92619 13.084705 112.40039 12.341797 C 112.89039 11.598889 113.61783 11.226562 114.58203 11.226562 z M 142.49219 11.226562 C 143.44058 11.226562 144.15276 11.598889 144.62695 12.341797 C 145.10115 13.068898 145.33789 14.199187 145.33789 15.732422 C 145.33789 17.281464 145.10115 18.427014 144.62695 19.169922 C 144.15276 19.91283 143.43295 20.285156 142.46875 20.285156 C 141.50455 20.285156 140.78474 19.920461 140.31055 19.193359 C 139.83635 18.450452 139.59961 17.304901 139.59961 15.755859 C 139.59961 14.222624 139.83635 13.084705 140.31055 12.341797 C 140.80055 11.598889 141.52799 11.226562 142.49219 11.226562 z M 87.119141 15.994141 L 88.589844 15.994141 L 88.589844 18.767578 C 88.289519 19.273388 87.879038 19.668607 87.357422 19.953125 C 86.851612 20.237643 86.320807 20.378906 85.767578 20.378906 C 85.07209 20.378906 84.543238 20.205166 84.179688 19.857422 C 83.831943 19.509678 83.658203 19.003719 83.658203 18.339844 C 83.658203 17.581129 83.935052 17.004539 84.488281 16.609375 C 85.04151 16.198405 85.917843 15.994141 87.119141 15.994141 z "
         transform="matrix(0.26458333,0,0,0.26458333,0.26092866,289.35838)"
         id="text1213" />
      <g
         id="g1654"
         transform="matrix(0.04783543,0,0,0.04783543,-0.04280002,294.65452)">
        <g
           transform="matrix(2.021656,-2.021656,2.021656,2.021656,308.65442,426.47746)"
           id="g1652">
          <g
             id="g1642"
             transform="matrix(0.282477,0.282477,-0.282477,0.282477,-16.251777,-130.00456)">
            <path
               sodipodi:nodetypes="cccccccccccccccccccccccc"
               inkscape:connector-curvature="0"
               id="path1636"
               d="m 57.455972,-250.62223 -40.463416,40.46342 v 16.23108 l 40.463416,40.46312 3.513867,-3.48096 -8.63158,-8.82453 9.0741,8.3491 1.169101,-1.20201 -3.416005,-4.03564 4.111109,3.37345 0.778405,-0.81132 -14.812991,-14.15992 15.294393,13.71143 1.034996,-1.03499 -40.463416,-40.46342 40.463416,-40.46312 -1.429858,-1.42986 c -0.0018,0.002 -0.003,0.004 -0.0049,0.005 l -12.586241,11.78948 12.015291,-12.41735 -0.590574,-0.54403 -2.335135,1.59444 1.90411,-2.02575 z"
               style="opacity:1;fill:#e9e6d0;fill-opacity:1;stroke:none;stroke-width:0.03024086;stroke-linecap:round;stroke-linejoin:round;stroke-miterlimit:4;stroke-dasharray:none;stroke-dashoffset:0;stroke-opacity:1;paint-order:fill markers stroke" />
            <path
               sodipodi:nodetypes="ccccccccccccc"
               inkscape:connector-curvature="0"
               id="path1640"
               d="m 55.813347,-255.12368 -42.08458,42.08457 -1.735578,0.002 -0.02969,22.85482 2.070003,-0.002 41.779845,41.77984 1.600246,-1.60024 -42.544337,-42.54434 -0.07345,0.0735 0.0225,-18.55447 0.05094,0.0509 42.544337,-42.54434 z"
               style="opacity:1;fill:#0f704c;fill-opacity:1;stroke:none;stroke-width:0.01376955;stroke-linecap:round;stroke-linejoin:round;stroke-miterlimit:4;stroke-dasharray:none;stroke-dashoffset:0;stroke-opacity:1;paint-order:fill markers stroke" />
          </g>
          <g
             transform="matrix(0.15788231,0.15788231,-0.15788231,0.15788231,22.089845,-142.00999)"
             id="g1650">
            <path
               style="opacity:1;fill:#e9e6d0;fill-opacity:1;stroke:none;stroke-width:0.03024086;stroke-linecap:round;stroke-linejoin:round;stroke-miterlimit:4;stroke-dasharray:none;stroke-dashoffset:0;stroke-opacity:1;paint-order:fill markers stroke"
               d="m 57.455972,-250.62223 -40.463416,40.46342 v 16.23108 l 40.463416,40.46312 3.744258,-3.74426 -2.871818,-3.32807 3.083947,3.11594 1.217676,-1.15879 -1.543651,-2.14362 2.19018,1.43821 0.992339,-0.99234 -9.15396,-10.20702 10.06918,9.2918 4.883788,-4.88378 -35.392845,-35.39285 35.966872,-35.96658 -6.150054,-6.12944 c -1.699868,1.33717 -5.278291,4.68272 -8.147287,7.14127 l 7.593429,-7.71622 -0.962941,-0.96294 -2.16818,1.56318 1.784392,-1.90603 z"
               id="path1644"
               inkscape:connector-curvature="0"
               sodipodi:nodetypes="ccccccccccccccccccccccc" />
            <path
               style="opacity:1;fill:#0f704c;fill-opacity:1;stroke:none;stroke-width:0.01376955;stroke-linecap:round;stroke-linejoin:round;stroke-miterlimit:4;stroke-dasharray:none;stroke-dashoffset:0;stroke-opacity:1;paint-order:fill markers stroke"
               d="m 54.355003,-257.71182 -43.262311,42.08457 -1.7355782,0.002 -0.02969,28.47188 2.0700032,-0.002 42.957576,41.77984 3.274491,-3.27449 -44.159278,-42.54434 -0.07345,0.0735 -0.114317,-21.39706 0.05094,0.0509 43.722068,-42.54434 z"
               id="path1648"
               inkscape:connector-curvature="0"
               sodipodi:nodetypes="ccccccccccccc" />
          </g>
        </g>
      </g>
    </g>
  </g>
</svg>
